# xmcd
#
# Track frame offsets: 
#        150
#        15684
#        32288
#        51394
#        67822
#        86452
#        106491
#        124452
#        142328
#        159446
#        177674
#        194973
#        212503
#        232618
#
# Disc length: 3335 seconds
#
# Revision: 2
# Processed by: cddbd v1.5.2PL0 Copyright (c) Steve Scherf et al.
# Submitted via: ExactAudioCopy v1.3
#
DISCID=c50d050e
DTITLE=Frei.Wild - Rivalen und Rebellen -CD2-
DYEAR=2018
DGENRE=Deutsch-Rock
TTITLE0=Antiwillkommen
TTITLE1=Du kriegst nicht eine Sekunde zurueck
TTITLE2=Es ist vorbei, es ist Geschichte
TTITLE3=Wir bringen alle um
TTITLE4=Fuer immer fuer ewig unendlich
TTITLE5=Es geht hier um mein Leben
TTITLE6=Auf ein nie wieder Wiedersehen
TTITLE7=Keine Angst vor Liebe
TTITLE8=In 8 Minuten um die Welt
TTITLE9=Schrei auf, schrei laut
TTITLE10=Aus dem Film unserer Geschichte
TTITLE11=Fick dich und verpiss dich
TTITLE12=Wenn mein Licht erlischt
TTITLE13=Verbotene Liebe, verbotener Kuss
EXTD=
EXTT0=
EXTT1=
EXTT2=
EXTT3=
EXTT4=
EXTT5=
EXTT6=
EXTT7=
EXTT8=
EXTT9=
EXTT10=
EXTT11=
EXTT12=
EXTT13=
PLAYORDER=
